<?xml version="1.0" encoding="UTF-8"?>
<svg width="331px" height="85px" viewBox="0 0 331 85" version="1.1" xmlns="http://www.w3.org/2000/svg" xmlns:xlink="http://www.w3.org/1999/xlink">
    <!-- Generator: Sketch 43.2 (39069) - http://www.bohemiancoding.com/sketch -->
    <title>AshleyandMike</title>
    <desc>Created with Sketch.</desc>
    <defs>
        <path d="M56.552,8.296 C53.8,9.064 50.6,9.448 47.4,9.768 C47.144,10.088 46.888,10.408 46.632,10.792 C47.016,11.176 48.424,12.776 48.488,12.904 C50.536,15.208 52.072,17.896 52.072,21.032 C52.008,24.424 49.704,29.032 46.888,33.768 C47.976,33.768 49,33.704 49.96,33.512 C50.088,33.768 50.152,33.768 49.832,33.832 C48.808,34.024 47.784,34.152 46.696,34.152 C45.928,35.368 45.16,36.648 44.456,37.864 C40.808,43.624 37.416,48.424 34.6,54.376 C34.024,55.528 34.024,55.656 35.24,55.208 C36.008,54.952 37.096,54.12 38.504,53.032 C44.776,48.36 54.312,39.784 57.512,36.712 C57.64,36.584 57.704,36.712 57.896,36.904 C55.016,39.592 45.224,48.616 38.504,53.608 C36.52,55.08 34.984,55.976 34.216,56.04 C33.32,56.104 32.872,55.016 32.872,54.248 C32.808,51.496 40.296,39.784 42.28,36.648 C42.792,35.752 43.304,34.92 43.816,34.088 C40.168,33.768 35.88,32.808 32.168,32.04 C26.344,40.808 20.392,49.32 14.248,53.736 C10.92,56.104 8.168,56.552 6.12,56.68 C0.936,56.872 -0.472,51.88 2.6,50.472 C2.92,50.344 2.792,50.408 2.92,50.792 C0.424,51.56 1.32,55.784 5.224,55.848 C7.336,55.912 8.872,55.4 11.496,53.608 C17.64,49.32 23.656,40.552 29.672,31.592 C25.064,30.76 21.48,30.632 19.176,32.744 C18.984,32.616 18.984,32.68 19.112,32.488 C21.48,30.12 25.256,30.184 30.056,31.016 C35.432,23.016 40.872,15.016 45.416,9.896 C35.24,10.856 11.24,8.488 11.56,21.672 C11.624,22.632 11.688,23.464 11.944,24.424 C11.56,24.488 11.56,24.616 11.496,24.296 C11.24,23.208 11.112,21.992 11.112,20.904 C10.984,7.272 34.856,10.152 45.736,9.448 C50.088,4.456 55.144,0.616 59.56,0.424 C60.648,0.36 61.544,0.552 62.184,0.872 C62.824,1.192 63.272,1.768 63.336,2.472 C63.656,5.352 60.712,7.208 56.552,8.296 Z M59.624,0.808 C55.464,1 51.56,4.392 47.72,9.32 C50.792,9 53.8,8.616 56.424,7.912 C60.392,6.824 63.208,5.16 62.888,2.472 C62.888,1.96 62.568,1.512 61.992,1.192 C61.416,0.936 60.648,0.744 59.624,0.808 Z M48.04,13.096 C48.04,13.032 46.888,11.688 46.376,11.112 C42.408,16.616 37.416,24.104 32.552,31.528 C36.2,32.296 40.424,33.256 44.136,33.64 C47.528,28.072 50.6,22.504 50.6,18.92 C50.6,16.36 49.576,14.952 48.04,13.096 Z M72.36,36.776 C72.616,36.584 72.68,36.648 72.808,36.904 C68.008,41.384 63.848,42.984 60.584,44.072 C58.856,51.304 53.928,54.632 50.344,54.632 C47.848,54.632 46.504,53.416 46.504,51.88 C46.504,47.4 54.44,45.8 57.896,44.392 C58.728,40.68 59.496,37.032 59.88,35.048 C59.176,35.752 58.472,36.392 57.832,36.968 C57.704,37.096 57.576,36.904 57.448,36.776 C58.28,36.008 59.176,35.24 60.008,34.472 C60.84,30.184 62.824,26.792 65.64,27.24 C66.216,27.304 66.728,27.624 66.664,28.264 C66.6,29.096 65.512,31.016 62.44,33.64 C61.864,36.904 61.288,40.296 60.648,43.56 C64.424,42.28 67.56,40.936 72.36,36.776 Z M65.768,27.688 C64.104,27.368 62.952,31.784 62.568,33 C65.704,30.12 66.216,28.84 66.28,28.2 C66.28,27.88 66.024,27.688 65.768,27.688 Z M49.448,54.056 C52.2,54.056 56.296,50.472 57.704,44.904 C54.376,46.248 47.08,47.528 46.888,51.816 C46.824,53.032 47.784,54.12 49.448,54.056 Z M97.896,36.712 C98.152,36.456 98.152,36.584 98.408,36.776 C97,38.184 95.656,39.528 94.12,41 C92.584,42.472 91.048,44.008 89.576,45.416 C86.952,47.912 84.776,49.768 82.792,51.496 C81.64,52.52 78.76,55.272 77.096,55.4 C76.2,55.4 75.752,54.44 75.752,53.736 C75.688,52.2 77.096,49.576 79.08,46.568 C80.424,44.456 81.64,42.856 83.112,40.808 C85.672,37.288 87.848,34.408 88.104,33.704 C88.104,33.64 88.04,33.64 87.976,33.64 C86.248,33.896 71.656,44.456 66.216,49.512 C65.64,50.024 65,49.896 63.592,48.808 C64.36,47.656 70.312,39.208 76.84,30.632 C81.576,24.424 86.376,17.768 91.56,12.008 C92.904,10.472 94.76,8.424 96.68,7.592 C97.768,7.08 98.984,7.272 99.048,8.808 C99.176,10.408 98.408,12.264 97.192,14.312 C95.72,16.552 93.672,19.048 91.432,21.416 C86.824,26.344 81.256,30.888 78.376,32.744 L78.312,32.808 C75.752,36.2 71.336,42.28 68.136,46.76 C67.816,47.208 67.56,47.592 67.304,47.976 C73.576,42.472 86.376,33.256 88.104,33.128 C88.744,33.128 89.064,33.384 89.256,33.832 C89.32,34.152 89.384,34.472 89.192,34.984 C88.744,36.456 87.336,38.824 85.736,41.192 C84.264,43.496 83.176,44.84 81.576,47.08 C79.656,49.768 78.056,52.2 77.416,53.608 C77.032,54.504 76.968,54.888 77.288,54.888 C78.504,54.888 81.704,51.944 82.472,51.24 C84.52,49.448 86.632,47.528 89.32,44.968 C90.792,43.56 92.392,42.024 93.928,40.552 C95.272,39.272 96.552,37.928 97.896,36.712 Z M93.032,13.16 C88.104,19.304 83.624,25.704 78.952,31.976 C81.448,30.248 86.696,25.896 91.112,21.224 C93.352,18.792 95.464,16.36 96.872,14.12 C98.152,12.072 98.92,10.28 98.728,8.744 C98.6,7.72 97.768,7.976 97.256,8.424 C95.784,9.64 94.248,11.688 93.032,13.16 Z M127.976,4.456 C128.04,6.056 127.144,7.784 125.864,9.832 C124.456,12.072 122.408,14.568 120.168,16.936 C115.56,21.928 110.184,26.536 107.176,28.456 C103.528,33.384 93.416,46.248 90.984,51.368 C90.408,52.584 90.344,52.776 91.624,52.392 C93.992,51.624 96.808,49.832 99.496,47.848 C104.104,44.392 108.904,39.784 112.296,36.712 C112.424,36.584 112.488,36.648 112.552,36.776 C112.616,36.776 112.616,36.84 112.68,36.904 C110.056,39.4 104.744,44.392 99.688,48.168 C97.32,49.896 94.888,51.56 92.968,52.392 C92.072,52.776 91.304,53.032 90.6,53.032 C89.704,53.096 89.256,52.072 89.256,51.304 C89.192,47.144 102.888,30.056 105.768,26.28 C110.44,20.072 115.304,13.416 120.424,7.656 C121.768,6.184 123.624,4.072 125.544,3.24 C126.696,2.728 127.848,2.92 127.976,4.456 Z M125.608,9.64 C126.888,7.592 127.784,5.928 127.592,4.392 C127.528,3.368 126.696,3.624 126.12,4.072 C124.648,5.288 123.112,7.336 121.896,8.808 C117.032,14.952 112.552,21.352 107.816,27.624 C110.312,25.896 115.368,21.48 119.784,16.744 C122.024,14.376 124.2,11.88 125.608,9.64 Z M129.064,36.712 C128.936,36.584 128.936,36.584 128.68,36.84 C121.448,43.368 113.192,49.512 109.096,49.64 C108.584,49.64 108.2,49.448 108.2,49.064 C108.008,46.248 114.536,37.416 116.328,35.432 C117.352,35.048 119.016,34.6 120.296,33.896 C121,33.448 123.56,32.04 123.496,30.696 C123.496,30.44 123.432,30.12 123.24,29.928 C122.984,29.672 122.728,29.608 122.344,29.608 C114.728,29.096 101.8,50.344 108.904,50.152 C113.256,50.024 121.832,43.56 129.192,36.904 C129.128,36.84 129.128,36.776 129.064,36.712 Z M116.904,34.728 C116.84,34.792 116.84,34.856 116.776,34.92 C117.672,34.536 119.016,34.152 120.104,33.576 C120.68,33.256 123.176,31.912 123.176,30.76 C123.176,30.504 123.176,30.312 122.984,30.12 C122.92,30.056 122.792,30.056 122.664,30.056 C121.768,30.056 119.272,31.912 116.904,34.728 Z M151.976,36.776 L152.104,36.904 C148.072,40.68 137.448,47.976 132.904,50.344 C127.464,57.768 121.576,66.216 115.752,72.936 C114.536,74.344 112.104,76.264 109.736,76.328 C108.264,76.328 107.816,75.496 107.752,74.408 C107.624,70.824 111.144,66.152 113.32,63.784 C115.752,61.16 117.992,59.24 120.424,57.384 C122.984,55.4 125.608,53.544 128.808,51.432 L129.064,51.304 C129.96,50.088 131.048,48.616 132.264,46.952 C134.568,43.88 136.424,41.448 138.472,38.632 C136.808,40.168 135.016,41.832 133.288,43.24 C130.664,45.416 128.168,47.4 125.928,48.104 C125.544,48.232 125.16,48.36 124.84,48.36 C123.88,48.424 123.496,47.336 123.496,46.568 C123.432,44.52 125.352,41.128 128.04,37.608 C128.488,37.032 131.496,32.616 132.008,32.488 C132.392,32.424 132.904,33 133.992,33.576 C132.84,35.112 131.496,37.032 130.408,38.632 C127.976,42.024 125.992,45.032 125.224,46.696 C124.648,47.848 124.584,48.104 125.8,47.656 C128.232,46.76 130.6,44.904 133.032,42.92 C135.464,40.936 137.896,38.504 140.072,36.392 L140.2,36.264 C140.584,35.944 140.904,36.392 142.376,37.288 C141.992,37.864 141.544,38.504 141.096,39.208 C138.792,42.472 136.872,44.904 134.312,48.36 C133.992,48.744 133.672,49.192 133.352,49.64 C137.96,47.144 147.752,40.296 151.656,36.776 C151.848,36.584 151.848,36.584 151.976,36.776 Z M114.088,71.848 C119.08,65.576 123.624,58.536 128.488,52.072 C125.608,54.056 123.176,55.784 120.808,57.64 C118.44,59.496 116.072,61.416 113.64,64.104 C112.168,65.64 109.864,68.648 108.712,71.4 C108.328,72.488 108.072,73.512 108.136,74.408 C108.2,75.112 108.584,75.624 109.416,75.688 C111.08,75.688 113.128,73.064 114.088,71.848 Z" id="path-1"></path>
        <filter x="-4.6%" y="-6.6%" width="109.3%" height="118.4%" filterUnits="objectBoundingBox" id="filter-2">
            <feOffset dx="0" dy="2" in="SourceAlpha" result="shadowOffsetOuter1"></feOffset>
            <feGaussianBlur stdDeviation="2" in="shadowOffsetOuter1" result="shadowBlurOuter1"></feGaussianBlur>
            <feColorMatrix values="0 0 0 0 0   0 0 0 0 0   0 0 0 0 0  0 0 0 0.5 0" type="matrix" in="shadowBlurOuter1"></feColorMatrix>
        </filter>
        <path d="M272.248,39.776 C272.504,39.52 272.44,39.584 272.696,39.904 C271.352,41.12 267.192,45.152 262.456,49.12 C256.696,53.92 250.488,58.72 249.016,58.784 C248.376,58.848 247.608,58.528 247.544,57.568 C247.352,53.408 266.68,31.008 266.616,26.016 C266.616,25.952 266.552,25.952 266.488,25.952 C264.12,26.272 244.536,43.872 241.08,46.88 C240.504,47.648 240.44,47.2 238.456,46.112 C238.52,45.984 239.096,45.216 239.928,44.128 C242.552,40.672 247.48,34.016 247.8,33.632 C252.856,27.104 259.384,18.208 259.384,17.056 C259.384,16.992 259.32,16.928 259.256,16.928 C255.288,17.504 239.864,27.872 235.128,31.008 C231.416,36 220.728,50.912 213.88,50.976 C212.536,50.976 212.088,50.464 212.152,49.76 C212.344,46.816 219.32,41.504 221.624,39.776 C225.656,36.704 229.496,34.144 229.88,33.824 C236.664,25.376 243.448,15.84 246.584,12.896 C236.28,13.408 212.536,9.888 211.512,23.264 C211.448,24.224 211.448,25.056 211.576,26.08 C211.192,26.144 211.192,26.208 211.128,25.824 C211,24.736 211.064,23.52 211.128,22.432 C212.408,8.608 235.96,12.704 246.968,12.512 C251.768,7.584 257.272,3.936 261.688,3.936 C262.776,3.936 263.608,4.192 264.248,4.512 C264.888,4.96 265.208,5.536 265.208,6.24 C265.208,9.184 262.072,10.912 257.848,11.808 C255.032,12.448 251.768,12.704 248.568,12.832 C245.496,16.352 240.824,23.328 235.96,29.92 C239.992,27.232 256.12,16.672 259.448,16.48 C261.048,16.352 261.176,17.184 261.24,17.632 C261.56,19.424 255.032,28.448 249.976,35.04 C249.72,35.36 244.856,41.824 242.296,45.28 C245.624,42.272 264.376,25.632 266.68,25.44 C267.704,25.376 268.28,26.208 268.344,26.656 C269.368,32.416 249.016,55.904 249.08,58.208 C249.08,58.272 249.144,58.336 249.208,58.336 C250.552,58.144 256.568,53.472 262.2,48.736 C266.68,44.96 270.712,41.12 272.248,39.776 Z M261.688,4.384 C257.528,4.384 253.304,7.584 248.952,12.448 C252.024,12.32 255.096,12 257.72,11.424 C261.816,10.528 264.824,8.928 264.824,6.24 C264.824,5.664 264.568,5.216 263.992,4.896 C263.48,4.576 262.712,4.384 261.688,4.384 Z M213.56,50.272 C218.296,50.272 226.104,38.496 228.92,35.04 C228.6,35.232 225.4,37.472 221.944,40.096 C219.832,41.696 212.984,46.88 212.728,49.504 C212.664,49.952 212.856,50.208 213.56,50.272 Z M284.472,39.776 L284.6,39.904 C281.144,43.104 273.336,49.76 269.368,50.016 C268.472,50.08 268.024,48.992 268.024,48.288 C267.96,46.24 269.944,42.784 272.568,39.264 C273.08,38.624 275.896,34.976 276.408,34.336 C278.008,32.416 277.432,32.608 279.608,33.952 C279.224,34.464 278.712,35.168 278.2,35.936 C277.624,36.704 275.32,39.712 274.936,40.288 C272.504,43.68 270.52,46.688 269.752,48.352 C269.176,49.504 269.112,49.696 270.392,49.312 C274.616,48.032 280.12,43.36 284.024,39.904 C284.28,39.648 284.28,39.584 284.472,39.776 Z M281.976,30.24 C281.208,30.24 280.696,29.536 280.824,28.768 C281.016,27.936 281.784,27.296 282.616,27.296 C283.448,27.296 283.96,27.936 283.768,28.768 C283.576,29.536 282.808,30.24 281.976,30.24 Z M292.152,32.992 L292.088,33.056 C290.68,34.912 288.888,37.408 286.968,40.032 C290.552,36.832 295.416,33.12 298.552,33.056 C299.704,32.992 300.344,33.568 300.344,34.592 C300.28,37.024 296.824,41.504 291.064,41.44 L290.808,41.44 C290.232,43.872 289.784,52.896 291.832,52.704 C293.496,52.512 301.688,44.896 307.064,39.776 C307.256,39.584 307.256,39.584 307.448,39.776 C307.448,39.776 307.512,39.84 307.512,39.904 C302.072,45.088 293.496,53.216 291.704,53.152 C286.136,53.152 287.928,42.464 288.76,40.672 C293.176,42.208 298.616,35.552 298.68,33.888 C298.68,33.632 298.552,33.504 298.36,33.504 C295.096,33.632 289.464,38.24 285.88,41.504 C285.112,42.656 284.28,43.808 283.448,44.96 C283.128,45.472 279.288,50.72 278.968,51.168 C276.92,54.048 277.688,54.368 275,52.256 C275.32,51.808 279.8,45.6 281.272,43.552 C283.704,40.16 287.416,35.104 291.448,29.856 C296.12,23.648 300.984,16.992 306.104,11.232 C307.448,9.696 309.304,7.584 311.224,6.752 C312.312,6.304 313.528,6.496 313.656,8.032 C313.72,9.632 312.824,11.36 311.544,13.408 C310.136,15.648 308.152,18.208 305.912,20.576 C301.304,25.568 295.032,31.136 292.152,32.992 Z M307.576,12.384 C302.712,18.528 297.4,25.952 292.728,32.224 C295.224,30.496 301.112,25.12 305.528,20.384 C307.768,18.016 309.88,15.456 311.288,13.216 C312.568,11.168 313.464,9.504 313.272,7.968 C313.144,6.944 312.376,7.2 311.8,7.648 C310.328,8.864 308.792,10.912 307.576,12.384 Z M323.896,39.712 C323.768,39.584 323.768,39.584 323.512,39.84 C316.28,46.368 308.024,52.512 303.928,52.64 C303.416,52.64 303.032,52.448 303.032,52.064 C302.84,49.248 309.368,40.416 311.16,38.432 C312.184,38.048 313.848,37.6 315.128,36.896 C315.832,36.448 318.392,35.04 318.328,33.696 C318.328,33.44 318.264,33.12 318.072,32.928 C317.816,32.672 317.56,32.608 317.176,32.608 C309.56,32.096 296.632,53.344 303.736,53.152 C308.088,53.024 316.664,46.56 324.024,39.904 C323.96,39.84 323.96,39.776 323.896,39.712 Z M311.736,37.728 C311.672,37.792 311.672,37.856 311.608,37.92 C312.504,37.536 313.848,37.152 314.936,36.576 C315.512,36.256 318.008,34.912 318.008,33.76 C318.008,33.504 318.008,33.312 317.816,33.12 C317.752,33.056 317.624,33.056 317.496,33.056 C316.6,33.056 314.104,34.912 311.736,37.728 Z" id="path-3"></path>
        <filter x="-6.2%" y="-9.1%" width="112.4%" height="125.5%" filterUnits="objectBoundingBox" id="filter-4">
            <feOffset dx="0" dy="2" in="SourceAlpha" result="shadowOffsetOuter1"></feOffset>
            <feGaussianBlur stdDeviation="2" in="shadowOffsetOuter1" result="shadowBlurOuter1"></feGaussianBlur>
            <feColorMatrix values="0 0 0 0 0   0 0 0 0 0   0 0 0 0 0  0 0 0 0.5 0" type="matrix" in="shadowBlurOuter1"></feColorMatrix>
        </filter>
        <path d="M188.464,40.168 C193.84,36.136 199.088,32.552 199.152,38.248 C199.152,38.44 199.152,38.76 199.088,39.016 C198.512,38.888 198.768,38.888 198.768,38.184 C198.704,33.512 193.52,37.16 188.208,41 C184.048,44.072 179.696,47.016 178.992,47.464 C177.2,55.72 173.872,62.12 166.192,62.12 C162.928,62.12 160.56,60.52 160.432,57.384 C160.368,56.04 160.368,56.232 161.584,56.168 C161.136,59.816 162.928,61.352 166,61.608 C173.296,61.608 176.688,55.72 178.48,47.784 C175.408,49.768 172.144,51.176 168.816,51.24 C164.144,51.304 162.48,49.32 162.352,46.696 C161.968,37.352 175.216,28.904 181.936,24.616 C183.472,16.232 186.032,9.832 192.816,10.216 C195.184,10.408 196.016,11.688 196.016,13.224 C196.016,14.632 195.312,16.296 194.416,17.512 C191.408,21.8 184.944,25.832 182.192,27.496 C181.04,33.96 180.464,40.616 179.12,46.888 C179.888,46.376 184.304,43.24 188.464,40.168 Z M192.816,10.664 C186.416,10.216 183.92,16.36 182.448,24.36 C184.944,22.952 190,19.304 192.496,16.104 C193.2,15.208 194.8,13.288 194.736,11.944 C194.672,11.24 194.16,10.728 192.816,10.664 Z M178.608,47.208 C180.016,40.936 180.592,34.216 181.68,27.752 C176.112,31.592 163.44,39.656 163.824,47.592 C163.888,49.576 165.296,50.92 169.008,50.856 C172.336,50.728 175.536,49.256 178.608,47.208 Z" id="path-5"></path>
        <filter x="-18.1%" y="-9.6%" width="136.1%" height="127.0%" filterUnits="objectBoundingBox" id="filter-6">
            <feOffset dx="0" dy="2" in="SourceAlpha" result="shadowOffsetOuter1"></feOffset>
            <feGaussianBlur stdDeviation="2" in="shadowOffsetOuter1" result="shadowBlurOuter1"></feGaussianBlur>
            <feColorMatrix values="0 0 0 0 0   0 0 0 0 0   0 0 0 0 0  0 0 0 0.5 0" type="matrix" in="shadowBlurOuter1"></feColorMatrix>
        </filter>
    </defs>
    <g id="Page-1" stroke="none" stroke-width="1" fill="none" fill-rule="evenodd">
        <g id="AshleyandMike" transform="translate(3.000000, 2.000000)">
            <g id="Ashley">
                <use fill="black" fill-opacity="1" filter="url(#filter-2)" xlink:href="#path-1"></use>
                <use fill="#FFFFFF" fill-rule="evenodd" xlink:href="#path-1"></use>
            </g>
            <g id="Mike">
                <use fill="black" fill-opacity="1" filter="url(#filter-4)" xlink:href="#path-3"></use>
                <use fill="#FFFFFF" fill-rule="evenodd" xlink:href="#path-3"></use>
            </g>
            <g id="&amp;">
                <use fill="black" fill-opacity="1" filter="url(#filter-6)" xlink:href="#path-5"></use>
                <use fill="#FFFFFF" fill-rule="evenodd" xlink:href="#path-5"></use>
            </g>
        </g>
    </g>
</svg>