<?xml version="1.0" encoding="UTF-8"?>
<svg width="376px" height="31px" viewBox="0 0 376 31" version="1.1" xmlns="http://www.w3.org/2000/svg" xmlns:xlink="http://www.w3.org/1999/xlink">
    <!-- Generator: Sketch 43.2 (39069) - http://www.bohemiancoding.com/sketch -->
    <title>vermont separator</title>
    <desc>Created with Sketch.</desc>
    <defs></defs>
    <g id="Page-1" stroke="none" stroke-width="1" fill="none" fill-rule="evenodd">
        <g id="vermont-separator" fill="#000000">
            <path d="M185.305846,16.0140152 C185.292923,15.861553 185.400615,15.857197 185.435077,15.7395833 C185.452308,15.6742424 185.353231,15.6263258 185.409231,15.4956439 C185.465231,15.35625 185.275692,15.1210227 185.228308,14.9816288 C185.172308,14.8117424 185.159385,14.5416667 185.163692,14.3587121 C185.168,14.2280303 185.249846,14.0842803 185.202462,13.9535985 C185.172308,13.8795455 185.068923,13.8621212 185.043077,13.7924242 C184.944,13.4962121 185.254154,13.2087121 185.163692,12.8950758 C185.129231,12.7731061 185.374769,12.4899621 185.348923,12.3418561 C185.331692,12.2416667 185.624615,11.9323864 185.693538,11.836553 C185.870154,11.5882576 185.891692,11.5621212 185.844308,11.1657197 C185.827077,11.0263258 185.827077,10.8869318 185.814154,10.7475379 C185.788308,10.4948864 185.801231,10.5471591 185.891692,10.3293561 C186.020923,10.0157197 186.081231,9.77613636 186.029538,9.45378788 C185.960615,9.02253788 185.740923,8.82651515 185.555692,8.50852273 C185.340308,8.13825758 185.478154,7.82897727 185.547077,7.51534091 C185.594462,7.31496212 185.529846,7.07537879 185.585846,6.79659091 C185.628923,6.59185606 185.848615,6.40018939 185.818462,6.18674242 C185.788308,5.96458333 185.499692,5.92102273 185.486769,5.68143939 C185.478154,5.47234848 185.706462,5.21969697 185.766769,5.03238636 C185.805538,4.91041667 185.788308,4.75795455 185.801231,4.61420455 C185.814154,4.48787879 185.702154,4.45738636 185.697846,4.33977273 C185.680615,3.86931818 186.563692,4.06534091 186.912615,4.04791667 C187.916308,3.99564394 188.941538,4.03049242 189.953846,4.04791667 C190.996308,4.06534091 192.051692,4.22651515 193.094154,4.16117424 C195.045538,4.04356061 197.001231,4.07405303 198.965538,4.0217803 C198.836308,4.21344697 198.547692,3.98257576 198.461538,4.22651515 C198.409846,4.37026515 198.603692,4.44867424 198.616615,4.54886364 C198.633846,4.70132576 198.685538,4.84943182 198.702769,4.97575758 C198.724308,5.11950758 198.758769,5.11950758 198.651077,5.26761364 C198.500308,5.46799242 198.444308,5.57253788 198.371077,5.7467803 C198.353846,5.78598485 198.293538,5.89488636 198.289231,5.92973485 C198.276308,5.98200758 198.276308,6.14318182 198.246154,6.22594697 C198.194462,6.36098485 198.013538,6.45681818 197.944615,6.59185606 C197.910154,6.65719697 197.849846,6.63541667 197.841231,6.69204545 C197.824,6.76609848 197.914462,6.90984848 197.923077,6.93598485 C198.022154,7.17121212 198.039385,7.1625 198.091077,7.38030303 C198.104,7.44128788 198.203077,7.5719697 198.233231,7.63295455 C198.254769,7.67215909 198.302154,7.71136364 198.332308,7.77670455 C198.388308,7.91174242 198.349538,7.95965909 198.392615,8.12083333 C198.431385,8.25151515 198.577846,8.33863636 198.405538,8.37348485 C198.457231,8.56950758 197.979077,8.54772727 198.129846,8.67840909 C198.336615,8.85700758 198.168615,8.76117424 198.203077,8.93977273 C198.181538,8.83522727 198.151385,9.12708333 198.181538,9.04867424 C198.155692,9.12708333 198.306462,9.21856061 198.121231,9.17935606 C198.125538,9.41893939 197.918769,9.2969697 197.849846,9.35359848 C197.733538,9.44943182 197.763692,9.80662879 197.569846,9.82840909 C197.518154,9.83712121 197.423385,10.0157197 197.341538,10.0636364 C197.281231,10.1028409 197.177846,10.0897727 197.113231,10.107197 C197.044308,10.1246212 196.617846,10.1551136 196.673846,10.3598485 C196.518769,10.394697 196.617846,10.4251894 196.566154,10.5123106 C196.484308,10.6517045 196.592,10.5776515 196.436923,10.7039773 C196.204308,10.8956439 196.027692,10.7649621 195.786462,10.7867424 C195.609846,10.8041667 195.260923,10.8520833 195.114462,11.0089015 C195.118769,11.0045455 195.028308,11.0481061 195.024,11.0568182 C195.002462,11.0785985 195.019692,11.1962121 194.993846,11.2397727 C194.920615,11.3617424 194.769846,11.3399621 194.782769,11.5359848 C194.804308,11.5403409 194.817231,11.5098485 194.834462,11.5142045 C194.804308,11.6274621 194.946462,11.7712121 194.907692,11.8583333 C194.881846,11.9106061 194.8,12.2068182 194.8,12.2460227 C194.8,12.411553 194.937846,12.550947 194.972308,12.6729167 C194.998154,12.7600379 194.976615,12.9386364 194.972308,12.9647727 C194.959385,13.0606061 194.873231,13.1041667 194.912,13.2392045 C194.937846,13.3263258 194.993846,13.0867424 195.049846,13.2174242 C195.075692,13.2784091 194.976615,13.34375 194.972308,13.3306818 C194.955077,13.2217803 194.976615,13.5354167 195.024,13.4308712 C194.998154,13.4787879 194.998154,13.4875 194.894769,13.4700758 C194.924923,13.6399621 194.735385,13.6225379 194.825846,13.7227273 C194.692308,13.7793561 194.601846,14.0581439 194.627692,14.1278409 C194.524308,14.0537879 194.274462,14.567803 194.627692,14.5808712 C194.532923,14.6897727 194.502769,14.7725379 194.438154,14.8945076 C194.330462,15.0992424 194.136615,15.3083333 194.046154,15.4738636 C193.972923,15.6045455 193.942769,15.7831439 193.925538,16.0227273 C193.908308,16.2579545 193.835077,16.4017045 193.714462,16.580303 C193.555077,16.8111742 193.279385,16.8939394 193.163077,17.150947 C193.089846,17.3208333 193.089846,17.4820076 193.033846,17.65625 C192.986462,17.8 192.934769,17.8653409 192.896,17.9916667 C192.870154,18.0875 192.956308,18.1746212 192.917538,18.2443182 C192.835692,18.3880682 192.620308,18.375 192.547077,18.5361742 C192.512615,18.6102273 192.426462,19.163447 192.460923,19.1895833 C192.611692,19.2984848 192.512615,19.6513258 192.465231,19.7776515 C192.396308,19.9518939 192.271385,20.4223485 192.297231,20.5878788 C192.314462,20.7011364 192.465231,20.6314394 192.478154,20.7011364 C192.482462,20.7272727 192.357538,20.9232955 192.348923,20.9755682 C192.331692,21.0714015 192.417846,21.1106061 192.383385,21.2674242 C192.344615,21.4503788 192.180923,21.5723485 192.146462,21.68125 C192.094769,21.8467803 192.124923,22.1168561 192.094769,22.2780303 C192.073231,22.3782197 191.987077,22.6700758 191.995692,22.7746212 C192.008615,22.9096591 192.176615,22.9314394 192.176615,23.0926136 C192.176615,23.2668561 192.094769,23.4193182 192.038769,23.5979167 C192.017231,23.6763258 191.948308,23.69375 191.931077,23.7808712 C191.918154,23.8418561 191.974154,23.9899621 191.982769,24.0640152 C191.991385,24.1162879 192.090462,24.1206439 192.090462,24.1772727 C192.090462,24.2731061 191.987077,24.2251894 191.978462,24.2600379 C191.939692,24.4255682 191.931077,24.4429924 191.836308,24.5214015 C191.758769,24.5823864 191.590769,24.5823864 191.534769,24.6433712 C191.388308,24.8001894 191.504615,24.7304924 191.487385,24.8655303 C191.461538,25.0659091 191.496,25.1660985 191.409846,25.344697 C191.345231,25.4840909 191.185846,25.6278409 191.310769,25.8195076 C191.379692,25.9284091 191.332308,26.0982955 191.392615,26.2159091 C191.422769,26.2681818 191.573538,26.4554924 191.620923,26.5077652 C191.629538,26.5208333 191.526154,26.5731061 191.582154,26.6297348 C191.603692,26.6515152 191.685538,26.5731061 191.689846,26.5774621 C191.707077,26.5905303 191.801846,26.6253788 191.870769,26.7604167 C191.909538,26.8344697 191.944,26.9215909 191.982769,26.9956439 C190.746462,26.9520833 189.510154,26.8998106 188.273846,26.85625 C187.688,26.8344697 187.106462,26.8126894 186.520615,26.7996212 C186.076923,26.7909091 186.029538,26.8475379 185.947692,26.3988636 C185.926154,26.2681818 185.930462,25.9414773 186.008,25.9066288 C186.033846,23.98125 186.124308,22.0166667 186.262154,20.0956439 C186.288,19.7253788 186.369846,19.2070076 186.339692,18.8846591 C186.313846,18.6232955 186.046769,18.588447 185.960615,18.4403409 C185.908923,18.3532197 186.025231,18.0526515 185.878769,17.9524621 C185.796923,17.8958333 185.443692,18.017803 185.426462,18.0352273 C185.366154,18.1005682 185.348923,18.6189394 185.180923,18.51875 C184.909538,18.3532197 185.043077,18.2443182 185.073231,17.9873106 C185.081846,17.9219697 185.012923,17.8609848 185.025846,17.7738636 C185.030154,17.7390152 185.094769,17.6867424 185.107692,17.6344697 C185.133538,17.5299242 185.159385,17.36875 185.198154,17.2816288 C185.297231,17.0638258 185.404923,16.8547348 185.495385,16.6630682 C185.753846,16.3799242 185.327385,16.2535985 185.305846,16.0140152 Z" id="Shape" fill-rule="nonzero"></path>
            <path d="M7.5,13.5 L171.5,13.5" id="Line" stroke="#000000" stroke-linecap="square"></path>
            <path d="M204.5,13.5 L368.5,13.5" id="Line-Copy" stroke="#000000" stroke-linecap="square"></path>
        </g>
    </g>
</svg>